Coordinates
version=1
nRows=13
nColumns=34
inDegrees=yes

Units are S.I. units (second, meters, Newtons, ...)
If the header above contains a line with 'inDegrees', this indicates whether rotational values are in degrees (yes) or radians (no).

endheader
time	pelvis_tilt	pelvis_list	pelvis_rotation	pelvis_tx	pelvis_ty	pelvis_tz	hip_flexion_r	hip_adduction_r	hip_rotation_r	knee_angle_r	ankle_angle_r	subtalar_angle_r	mtp_angle_r	hip_flexion_l	hip_adduction_l	hip_rotation_l	knee_angle_l	ankle_angle_l	subtalar_angle_l	mtp_angle_l	lumbar_extension	lumbar_bending	lumbar_rotation	arm_flex_r	arm_add_r	arm_rot_r	elbow_flex_r	pro_sup_r	arm_flex_l	arm_add_l	arm_rot_l	elbow_flex_l	pro_sup_l
      8.95000000	      2.21464478	     -1.05465357	    -47.35105105	      0.56885325	      0.99238847	      0.24019238	     -7.89865809	     -6.25351970	     -3.14750814	      1.39629738	     13.11421341	      2.55835987	      0.00000000	     -6.81868764	     -2.44387241	     -7.02622806	      4.69600238	     16.29122631	      6.11751664	      0.00000000	     -7.13925638	      0.82465372	     -4.23605942	     12.76263955	    -12.24794230	     38.37327822	     17.89677996	    116.76133886	     16.03654288	     -8.95910587	     43.30264130	     19.91494771	    114.11345546
      8.96666670	      2.40425005	     -1.32417298	    -47.38456957	      0.57046810	      0.99270787	      0.24159952	     -8.62011286	     -6.21438580	     -2.86912888	      0.95108199	     13.08019430	      2.66649867	      0.00000000	     -7.69117185	     -2.39051530	     -7.04060945	      3.96161959	     16.22200181	      6.25672608	      0.00000000	     -7.05718809	      0.89255259	     -4.13731921	     12.41214492	    -11.73814433	     37.67567100	     16.62259261	    116.77343717	     15.85218555	     -8.56844432	     42.59255050	     19.13737638	    114.09258630
      8.98333330	      2.48847127	     -1.41850431	    -47.40209569	      0.57128577	      0.99277178	      0.24192459	     -8.74527338	     -6.25295583	     -2.88285263	      1.06418812	     13.07620041	      2.61738311	      0.00000000	     -7.82863981	     -2.35711406	     -7.09948369	      4.05570540	     16.19818179	      6.20420294	      0.00000000	     -7.01412655	      0.98399034	     -4.16868451	     12.11419869	    -11.61173630	     37.63218491	     16.55730970	    116.78254497	     15.68689616	     -8.54129089	     42.54322857	     19.13331098	    114.09831339
      9.00000000	      2.49743791	     -1.43582285	    -47.45018129	      0.57153455	      0.99270262	      0.24159158	     -8.74703528	     -6.29637073	     -2.88457185	      1.06220434	     13.08316309	      2.60816762	      0.00000000	     -7.84732936	     -2.30971994	     -7.10997940	      4.05920411	     16.19976779	      6.19761805	      0.00000000	     -7.03992715	      1.09826363	     -4.21983061	     11.97186606	    -11.54341990	     37.63472777	     16.53112304	    116.78525340	     15.69422966	     -8.55663220	     42.53064811	     19.13413969	    114.09819942
      9.01666670	      2.95292601	     -1.93833317	    -47.57980616	      0.57276554	      0.99348507	      0.24317936	     -9.79453460	     -6.29940192	     -2.61237240	      0.66795955	     12.86119339	      2.47142270	      0.00000000	     -9.09552971	     -2.20539880	     -7.37178094	      3.34817186	     15.83968523	      6.07941277	      0.00000000	     -7.48122891	      1.12194044	     -4.14802175	     11.51673546	    -11.00991022	     35.42764075	     15.91766099	    116.64923949	     15.19094701	     -8.54043602	     41.02877372	     19.60573256	    114.17880166
      9.03333330	      2.95532877	     -1.94770828	    -47.62566058	      0.57299814	      0.99341591	      0.24285984	     -9.78135860	     -6.33900971	     -2.60287642	      0.67188869	     12.86682507	      2.47009119	      0.00000000	     -9.09753225	     -2.15462993	     -7.36573780	      3.35743248	     15.84501889	      6.08108605	      0.00000000	     -7.51071489	      1.24406315	     -4.19970145	     11.35974327	    -10.93395082	     35.43537489	     15.89708988	    116.65361402	     15.18674217	     -8.54450455	     41.02263329	     19.60222817	    114.18071266
      9.05000000	      2.89329931	     -2.01370527	    -47.62449435	      0.57422048	      0.99326982	      0.24410521	     -9.91254661	     -6.23561315	     -2.53982221	      0.66202213	     13.02517711	      2.41837593	      0.00000000	     -9.31349042	     -2.21076946	     -7.36147787	      3.18009042	     15.99820691	      6.03041162	      0.00000000	     -7.17377001	      1.38863926	     -4.16145375	     10.78152957	    -10.72695939	     35.20730755	     15.58742647	    116.65121538	     14.85205528	     -8.44718748	     40.90802235	     19.53786216	    114.21958322
      9.06666670	      2.89726977	     -2.01306499	    -47.65580440	      0.57444847	      0.99325789	      0.24374708	     -9.89240064	     -6.27142287	     -2.52751054	      0.66206846	     13.01761497	      2.42496297	      0.00000000	     -9.30696726	     -2.16189461	     -7.36227497	      3.17649720	     15.99769646	      6.02982544	      0.00000000	     -7.23400218	      1.50386463	     -4.20190424	     10.63157869	    -10.64472152	     35.21203834	     15.55658153	    116.65381233	     14.84282863	     -8.46080318	     40.90056116	     19.52774275	    114.22059582
      9.08333330	      2.83887276	     -2.09818803	    -47.71750068	      0.57554767	      0.99314456	      0.24527823	    -10.09214113	     -6.14610817	     -2.46543417	      0.54369827	     13.05278494	      2.44022853	      0.00000000	     -9.63863163	     -2.23708058	     -7.40224510	      2.83550693	     16.02193311	      5.98865055	      0.00000000	     -6.90753730	      1.61981574	     -4.06220624	     10.08528851	    -10.25111310	     34.81115475	     14.84807438	    116.60433264	     14.51639346	     -8.34746980	     40.69496740	     19.32784385	    114.25152067
      9.10000000	      2.84607250	     -2.09040266	    -47.74762730	      0.57567556	      0.99312873	      0.24495041	    -10.07161834	     -6.17964935	     -2.44836508	      0.54362206	     13.04098851	      2.45202022	      0.00000000	     -9.63021005	     -2.19639274	     -7.40324567	      2.82703888	     16.01913439	      5.98817431	      0.00000000	     -6.97979999	      1.72236950	     -4.10689948	      9.94133962	    -10.18290174	     34.81071799	     14.80975022	    116.60541668	     14.50233430	     -8.37055783	     40.68620644	     19.30953166	    114.25217725
      9.11666670	      2.84333238	     -2.18039896	    -47.82684581	      0.57660265	      0.99313097	      0.24624472	    -10.38195255	     -6.11985469	     -2.17801554	      0.26933503	     12.88770472	      2.67228173	      0.00000000	    -10.11654243	     -2.19995277	     -7.40797672	      2.22750279	     15.83567971	      5.99885608	      0.00000000	     -6.76007697	      1.83705043	     -4.04987861	      9.61306868	     -9.69628341	     33.90961418	     13.72454033	    116.45168695	     14.21865447	     -8.23575893	     40.26753732	     18.94262956	    114.29999052
      9.13333330	      2.85142329	     -2.17603670	    -47.86008372	      0.57668053	      0.99313961	      0.24598360	    -10.36957509	     -6.15290029	     -2.18445225	      0.26277703	     12.89034362	      2.66422916	      0.00000000	    -10.10843295	     -2.16188353	     -7.40632619	      2.23143636	     15.83450386	      5.99672713	      0.00000000	     -6.82468702	      1.93586020	     -4.06851158	      9.49208951	     -9.62895269	     33.90996211	     13.70677068	    116.45279670	     14.18195289	     -8.28359564	     40.26014082	     18.91551886	    114.30054115
      9.15000000	      2.89773948	     -2.24030173	    -47.89724475	      0.57715988	      0.99321648	      0.24703230	    -10.48188021	     -6.13096126	     -2.18920609	      0.34270499	     12.88099737	      2.64705667	      0.00000000	    -10.25303914	     -2.17642433	     -7.43801698	      2.27262599	     15.83814189	      5.94926247	      0.00000000	     -6.73462438	      1.93835263	     -4.08984360	      9.11151237	     -9.48252072	     33.84834145	     13.57585776	    116.44292281	     13.93618783	     -8.40091640	     40.22571478	     18.79754369	    114.30594351
